<?xml version="1.0" encoding="UTF-8"?>
<svg width="900pt" height="900pt" version="1.1" viewBox="100 0 500 600" xmlns="http://www.w3.org/2000/svg">
 <g fill-rule="evenodd">
  <path d="m350 140c-41.883 0-75.832 33.953-75.832 75.832 0 41.883 33.949 75.836 75.832 75.836s75.832-33.953 75.832-75.836c0-41.879-33.949-75.832-75.832-75.832zm-99.168 75.832c0-54.766 44.398-99.164 99.168-99.164s99.168 44.398 99.168 99.164c0 54.77-44.398 99.168-99.168 99.168s-99.168-44.398-99.168-99.168z"/>
  <path d="m188.49 427.36c-1.6953 2.7461-1.8203 4.1328-1.8203 4.3125 0 6.4414-5.2266 11.664-11.668 11.664s-11.668-5.2227-11.668-11.664c0-6.0742 2.3242-11.742 5.293-16.555 3.0273-4.918 7.2227-9.7461 12.16-14.359 9.8789-9.2383 23.699-18.535 40.254-26.812 33.148-16.574 78.672-29.773 128.96-29.773s95.812 13.199 128.96 29.773c16.551 8.2773 30.375 17.574 40.254 26.812 4.9375 4.6133 9.1328 9.4414 12.164 14.359 2.9648 4.8125 5.2891 10.48 5.2891 16.555 0 6.4414-5.2266 11.664-11.668 11.664s-11.668-5.2227-11.668-11.664c0-0.17969-0.125-1.5664-1.8203-4.3125-1.6328-2.6484-4.3125-5.8945-8.2344-9.5586-7.8281-7.3242-19.637-15.426-34.75-22.984-30.191-15.094-72.164-27.312-118.53-27.312s-88.336 12.219-118.53 27.312c-15.113 7.5586-26.922 15.66-34.75 22.984-3.9219 3.6641-6.6055 6.9102-8.2344 9.5586z"/>
  <path d="m350 58.332c-122.42 0-221.67 99.246-221.67 221.67s99.246 221.67 221.67 221.67 221.67-99.246 221.67-221.67-99.246-221.67-221.67-221.67zm-245 221.67c0-135.31 109.69-245 245-245s245 109.69 245 245-109.69 245-245 245-245-109.69-245-245z"/>
 </g>
</svg>
